<?xml version="1.0" encoding="iso-8859-1"?>
<!-- Generator: Adobe Illustrator 16.0.0, SVG Export Plug-In . SVG Version: 6.00 Build 0)  -->
<!DOCTYPE svg PUBLIC "-//W3C//DTD SVG 1.1//EN" "http://www.w3.org/Graphics/SVG/1.1/DTD/svg11.dtd">
<svg version="1.1" id="Capa_1" xmlns="http://www.w3.org/2000/svg" xmlns:xlink="http://www.w3.org/1999/xlink" x="0px" y="0px"
	 width="612px" height="612px" viewBox="0 0 612 612" style="enable-background:new 0 0 612 612;" xml:space="preserve">
<g>
	<g id="_x35__13_">
		<g>
			<path d="M210.375,420.843H95.625c-10.557,0-19.125,8.568-19.125,19.125s8.568,19.125,19.125,19.125h114.75
				c10.557,0,19.125-8.568,19.125-19.125S220.932,420.843,210.375,420.843z M210.375,344.343H95.625
				c-10.557,0-19.125,8.568-19.125,19.125s8.568,19.125,19.125,19.125h114.75c10.557,0,19.125-8.568,19.125-19.125
				C229.5,352.892,220.932,344.343,210.375,344.343z M535.5,153.093h-40.162L293.875,40.638c-9.142-5.068-20.846-2.065-26.125,6.713
				s-2.142,20.005,7,25.073l145.521,80.65H76.5c-42.247,0-76.5,34.253-76.5,76.5v267.75c0,42.247,34.253,76.5,76.5,76.5h459
				c42.247,0,76.5-34.253,76.5-76.5v-267.75C612,187.346,577.747,153.093,535.5,153.093z M573.75,497.343
				c0,21.133-17.117,38.25-38.25,38.25h-459c-21.133,0-38.25-17.136-38.25-38.25v-267.75c0-21.114,17.117-38.25,38.25-38.25h459
				c21.133,0,38.25,17.136,38.25,38.25V497.343z M401.625,248.718c-63.38,0-114.75,51.389-114.75,114.75
				c0,63.38,51.37,114.75,114.75,114.75s114.75-51.37,114.75-114.75S465.005,248.718,401.625,248.718z M401.625,439.968
				c-42.247,0-76.5-34.253-76.5-76.5s34.253-76.5,76.5-76.5s76.5,34.253,76.5,76.5S443.872,439.968,401.625,439.968z
				 M210.375,267.843H95.625c-10.557,0-19.125,8.568-19.125,19.125c0,10.557,8.568,19.125,19.125,19.125h114.75
				c10.557,0,19.125-8.568,19.125-19.125C229.5,276.412,220.932,267.843,210.375,267.843z"/>
		</g>
	</g>
</g>
<g>
</g>
<g>
</g>
<g>
</g>
<g>
</g>
<g>
</g>
<g>
</g>
<g>
</g>
<g>
</g>
<g>
</g>
<g>
</g>
<g>
</g>
<g>
</g>
<g>
</g>
<g>
</g>
<g>
</g>
</svg>
